<svg width="12" height="13" viewBox="0 0 12 13" fill="none" xmlns="http://www.w3.org/2000/svg">
<path d="M6.70794 2.83333H5.28216L5.28216 8.06771H6.70794V2.83333ZM5.99505 8.64388C5.56536 8.64388 5.23333 8.97103 5.23333 9.38119C5.23333 9.79622 5.56536 10.1185 5.99505 10.1185C6.42474 10.1185 6.75677 9.79622 6.75677 9.38119C6.75677 8.97103 6.42474 8.64388 5.99505 8.64388Z" fill="#767676"/>
<path fill-rule="evenodd" clip-rule="evenodd" d="M6 1.16667C3.05448 1.16667 0.666667 3.55448 0.666667 6.5C0.666667 9.44552 3.05448 11.8333 6 11.8333C8.94552 11.8333 11.3333 9.44552 11.3333 6.5C11.3333 3.55448 8.94552 1.16667 6 1.16667ZM0 6.5C0 3.18629 2.68629 0.5 6 0.5C9.31371 0.5 12 3.18629 12 6.5C12 9.81371 9.31371 12.5 6 12.5C2.68629 12.5 0 9.81371 0 6.5Z" fill="#6E6E6E"/>
</svg>
