<svg width="24" height="24" viewBox="0 0 24 24" fill="none" xmlns="http://www.w3.org/2000/svg">
<path d="M15 10H16V11H15V10Z" fill="#006EDB"/>
<path d="M19 10H18V11H19V10Z" fill="#006EDB"/>
<path fill-rule="evenodd" clip-rule="evenodd" d="M20 6V1C20 0.447266 19.5508 0 19 0H5C4.44922 0 4 0.447266 4 1V6H1C0.449219 6 0 6.44727 0 7V18C0 18.5527 0.449219 19 1 19H4V23C4 23.5527 4.44922 24 5 24H19C19.5508 24 20 23.5527 20 23V19H23C23.5508 19 24 18.5527 24 18V7C24 6.44727 23.5508 6 23 6H20ZM6 2V6H18V2H6ZM20 17H22V8H2V17H4V14C4 13.4473 4.44922 13 5 13H19C19.293 13 19.5586 13.127 19.7422 13.3301C19.9023 13.5078 20 13.7422 20 14V17ZM6 15V22H18V15H6Z" fill="#006EDB"/>
</svg>
