<svg width="24" height="23" viewBox="0 0 24 23" fill="none" xmlns="http://www.w3.org/2000/svg">
<path d="M12.8732 13.7626V0H11.1232V13.7626L7.04841 9.68782C6.7067 9.34611 6.15268 9.34611 5.81097 9.68782C5.46926 10.0295 5.46926 10.5835 5.81097 10.9253L11.3794 16.4937C11.7211 16.8354 12.2752 16.8354 12.6169 16.4937L18.1853 10.9253C18.527 10.5835 18.527 10.0295 18.1853 9.68782C17.8436 9.34611 17.2896 9.34611 16.9479 9.68782L12.8732 13.7626Z" fill="#006EDB"/>
<path d="M0 20.875V13.875H2L2 20.875H22V13.875H24V20.875C24 21.9796 23.1046 22.875 22 22.875H2C0.89543 22.875 0 21.9796 0 20.875Z" fill="#006EDB"/>
</svg>
